<?xml version="1.0" encoding="utf-8"?>
<!-- Generator: Adobe Illustrator 23.0.3, SVG Export Plug-In . SVG Version: 6.00 Build 0)  -->
<svg version="1.1" id="Layer_1" xmlns="http://www.w3.org/2000/svg" xmlns:xlink="http://www.w3.org/1999/xlink" x="0px" y="0px"
	 viewBox="0 0 640 640" style="enable-background:new 0 0 640 640;" xml:space="preserve">
<style type="text/css">
	.st0{fill:none;}
	.st1{fill:#F50057;}
	.st2{clip-path:url(#SVGID_2_);}
	.st3{fill:#212121;}
	.st4{fill:#D7CCC8;}
	.st5{fill:#BCAAA4;}
	.st6{fill:#616161;}
	.st7{fill:#EEEEEE;}
	.st8{fill:#FAFAFA;}
	.st9{fill:none;stroke:#212121;stroke-width:3;stroke-linecap:round;stroke-linejoin:round;}
	.st10{fill:#FFFFFF;}
	.st11{fill:#304FFE;}
</style>
<title>cd-rgbPrimary</title>
<g>
	<g id="Layer_1-2">
		<rect class="st0" width="640" height="640"/>
		<path class="st1" d="M146.6,429.7v64.8h-8v-7.3c-1.8,2.5-4.3,4.5-7.1,5.9c-3,1.4-6.2,2-9.4,2c-4.2,0.1-8.3-1-12-3
			c-3.5-1.9-6.4-4.8-8.3-8.3c-4-7.7-4-16.9,0-24.7c2-3.5,4.8-6.4,8.3-8.3c3.7-2,7.8-3.1,12-3c3.2,0,6.3,0.6,9.2,1.9
			c2.8,1.2,5.2,3.1,7,5.5v-25.5L146.6,429.7z M130.8,485.7c2.4-1.4,4.3-3.3,5.6-5.8c2.7-5.4,2.7-11.6,0-17c-1.3-2.4-3.2-4.4-5.6-5.7
			c-5-2.7-11-2.7-15.9,0c-2.4,1.3-4.3,3.3-5.6,5.7c-2.7,5.3-2.7,11.7,0,17c1.3,2.4,3.2,4.4,5.6,5.8
			C119.8,488.4,125.8,488.4,130.8,485.7z"/>
		<path class="st1" d="M221.6,474.2H184c0.4,3.9,2.3,7.4,5.4,9.8c3.2,2.5,7.3,3.9,11.4,3.7c5.5,0,10-1.9,13.4-5.6l4.6,5.4
			c-2.1,2.5-4.8,4.4-7.8,5.6c-7.6,2.9-16.1,2.5-23.4-1.1c-3.7-1.9-6.7-4.8-8.8-8.4c-2.1-3.7-3.2-8-3.1-12.2c-0.1-4.2,1-8.4,3-12.1
			c1.9-3.5,4.8-6.4,8.3-8.4c3.6-2,7.8-3.1,11.9-3c4.1-0.1,8.2,1,11.8,3c3.4,2,6.3,4.9,8.1,8.4c2,3.8,3,8.1,2.9,12.4
			C221.7,472.5,221.7,473.4,221.6,474.2z M188.8,458.6c-2.7,2.5-4.4,5.9-4.8,9.6h29.7c-0.3-3.7-2-7.1-4.8-9.6
			C203.1,453.7,194.6,453.7,188.8,458.6L188.8,458.6z"/>
		<path class="st1" d="M253.2,493.5c-3-0.8-5.7-2.1-8.2-3.9l3.5-6.6c2.3,1.6,4.8,2.7,7.4,3.5c2.9,0.9,5.8,1.3,8.8,1.3
			c7.3,0,11-2.1,11-6.3c0.1-1.3-0.5-2.5-1.5-3.3c-1.1-0.9-2.4-1.5-3.7-1.8c-1.5-0.4-3.6-0.8-6.3-1.3c-3.1-0.4-6.1-1.1-9.1-2
			c-2.3-0.7-4.4-2.1-6-3.8c-1.7-1.8-2.5-4.3-2.5-7.6c-0.1-4,1.9-7.8,5.2-10.1c3.5-2.5,8.2-3.8,14.1-3.8c3.1,0,6.2,0.4,9.2,1.2
			c2.7,0.6,5.3,1.6,7.6,3.1l-3.6,6.6c-4-2.5-8.6-3.8-13.3-3.6c-3.5,0-6.3,0.6-8.1,1.7c-1.7,0.9-2.8,2.7-2.8,4.6
			c-0.1,1.4,0.5,2.7,1.6,3.6c1.1,0.9,2.5,1.6,3.9,1.9c1.5,0.4,3.7,0.9,6.5,1.4c3,0.5,6,1.2,9,2c2.3,0.7,4.3,2,5.9,3.7
			c1.6,1.8,2.4,4.2,2.5,7.3c0.1,4-2,7.8-5.4,10c-3.6,2.5-8.5,3.7-14.6,3.7C260.4,495.1,256.7,494.6,253.2,493.5z"/>
		<path class="st1" d="M312.2,437.8c-1.1-1-1.6-2.4-1.6-3.8c0-1.5,0.6-2.9,1.6-3.9c1.1-1.1,2.5-1.7,4.1-1.6c1.5,0,3,0.5,4.1,1.5
			c1.1,1,1.7,2.4,1.6,3.8c0,1.5-0.5,3-1.6,4c-1.1,1.1-2.5,1.7-4.1,1.6C314.7,439.4,313.2,438.8,312.2,437.8z M312,448.3h8.4v46.3
			H312V448.3z"/>
		<path class="st1" d="M398.1,448.3v40c0,8.1-2,14.1-6,17.9c-4,3.9-10,5.8-18,5.8c-4.2,0-8.4-0.6-12.5-1.8c-3.6-1-6.9-2.7-9.6-5.1
			l4-6.5c2.4,2,5.1,3.5,8,4.4c3.2,1.1,6.5,1.6,9.8,1.6c5.4,0,9.4-1.3,12-3.8c2.6-2.6,3.9-6.5,3.9-11.7v-3.7
			c-1.9,2.4-4.4,4.2-7.3,5.4c-3,1.2-6.2,1.8-9.4,1.8c-4.2,0.1-8.3-0.9-12-2.8c-3.5-1.8-6.4-4.6-8.4-8c-4.1-7.2-4.1-16.1,0-23.3
			c2-3.4,4.9-6.1,8.4-7.9c3.7-1.9,7.8-2.8,12-2.8c3.3,0,6.7,0.6,9.7,1.9c2.9,1.2,5.5,3.2,7.4,5.7v-7.2H398.1z M382.2,483.4
			c2.4-1.2,4.3-3.1,5.7-5.4c1.4-2.4,2.1-5.1,2-7.8c0.2-4.1-1.5-8.1-4.5-10.9c-6.7-5.5-16.3-5.5-23,0c-3,2.8-4.6,6.8-4.5,10.9
			c0,2.8,0.7,5.5,2.1,7.8c1.4,2.3,3.3,4.1,5.7,5.4c2.6,1.3,5.4,2,8.3,1.9C376.9,485.3,379.7,484.7,382.2,483.4z"/>
		<path class="st1" d="M470.3,452.9c3.5,3.4,5.2,8.4,5.2,15v26.6h-8.4v-25.7c0-4.5-1.1-7.9-3.2-10.1c-2.2-2.3-5.2-3.4-9.3-3.4
			c-4.5,0-8.1,1.3-10.7,4s-3.9,6.4-3.9,11.4v23.8h-8.4v-46.3h8v7c1.7-2.4,4.1-4.3,6.9-5.5c3.1-1.3,6.4-2,9.8-1.9
			C462.2,447.8,466.8,449.5,470.3,452.9z"/>
		<path class="st1" d="M510.9,493.5c-3-0.8-5.7-2.1-8.2-3.9l3.5-6.6c2.3,1.6,4.8,2.7,7.4,3.5c2.9,0.9,5.8,1.3,8.8,1.3
			c7.3,0,11-2.1,11-6.3c0.1-1.3-0.5-2.5-1.5-3.3c-1.1-0.9-2.4-1.5-3.7-1.8c-1.5-0.4-3.6-0.8-6.3-1.3c-3.1-0.4-6.1-1.1-9.1-2
			c-2.3-0.7-4.4-2.1-6.1-3.8c-1.7-1.8-2.5-4.3-2.5-7.6c-0.1-4,1.9-7.8,5.2-10.1c3.5-2.5,8.2-3.8,14.1-3.8c3.1,0,6.2,0.4,9.3,1.1
			c2.7,0.6,5.3,1.6,7.6,3.1l-3.6,6.6c-4-2.5-8.6-3.8-13.4-3.7c-3.6,0-6.3,0.6-8.1,1.7c-1.7,0.9-2.8,2.7-2.8,4.6
			c-0.1,1.4,0.5,2.7,1.6,3.6c1.1,0.9,2.5,1.6,3.9,1.9c1.5,0.4,3.7,0.9,6.5,1.4c3,0.5,6,1.2,9,2c2.3,0.7,4.3,2,5.9,3.7
			c1.6,1.8,2.5,4.2,2.5,7.3c0.1,4-2,7.8-5.4,10c-3.6,2.5-8.5,3.7-14.6,3.7C518.1,495.1,514.4,494.6,510.9,493.5z"/>
		<g>
			<defs>
				<path id="SVGID_1_" d="M453.2,193h-26.7l30.9-26.5H489l30.9,26.5h-26.7l-20-13.2L453.2,193z M451.1,149.1c1.9-1.9,4.5-3,7.2-2.8
					c1.7,0.1,3.3,0.6,4.8,1.4c1.8,0.9,3.6,1.9,5.5,3c3.4,2.2,7,4.1,10.7,5.7c3.6,1.4,7.3,2.1,11.1,2c8.2,0,14.6-2.6,19.3-7.7
					c4.6-5.1,7-12.1,7.2-21.1h-18.1c-0.2,2.8-1.2,5.4-3,7.5c-1.8,2-4.5,3.1-7.2,2.9c-1.7,0-3.3-0.4-4.8-1.2c-2.1-1-4.2-2.2-6.2-3.5
					c-3.5-2-7.1-3.9-10.8-5.6c-3.3-1.3-6.8-2-10.3-1.9c-8.4,0-14.9,2.5-19.6,7.5c-4.7,5-7.2,12.2-7.3,21.5h18.6
					C448.4,153.6,449.4,151,451.1,149.1z M542.2,271.5c0,12.4-2.9,23.5-8.8,33.2c-5.8,9.7-14.3,17.6-24.3,22.9
					c-10.4,5.5-22.1,8.2-35.3,8.2s-24.9-2.7-35.4-8.2c-1-0.5-2-1.1-3-1.7c-3.4,11.4-8.2,22.2-14.4,32.4
					c-14,22.7-33.5,40.3-58.7,52.8s-54.1,18.8-86.9,18.8H138.3V299.6l-40.4,0v-47.1h41.5L138.3,128h137.1c32.8,0,61.7,6.3,86.9,18.8
					c25.1,12.5,44.7,30.1,58.6,52.8c3.9,6.5,7.3,13.2,10.2,20.3c2.3-1.6,4.7-3.1,7.2-4.4c10.4-5.5,22.3-8.2,35.4-8.2
					c13.2,0,24.9,2.7,35.4,8.2c10.1,5.2,18.5,13.1,24.4,22.9C539.2,248,542.2,259.1,542.2,271.5L542.2,271.5z M371,278.9
					c0-28.7-9-51.5-26.9-68.3c-18-16.8-42-25.2-72.2-25.2h-63.8v67.1h75.6v47.1h-75.6v72.9h63.8c30.2,0,54.2-8.4,72.2-25.2
					C362.1,330.4,371,307.6,371,278.9z M505.4,271.5c0-10.5-3-18.9-8.9-25.2c-6-6.3-13.6-9.4-22.9-9.4c-9.3,0-17,3.1-23,9.4
					c-6,6.3-9.1,14.7-9.1,25.2c0,10.5,3,18.9,9.1,25.2s13.7,9.4,23,9.4c9.3,0,16.9-3.1,22.9-9.4S505.4,282,505.4,271.5L505.4,271.5z
					"/>
			</defs>
			<clipPath id="SVGID_2_">
				<use xlink:href="#SVGID_1_"  style="overflow:visible;"/>
			</clipPath>
			<g class="st2">
				<path class="st3" d="M542.2,404.1v-367H97.8v259.2c31.2-4.7,62.7-7.1,94.3-7.1C328.8,289.2,452.5,333.1,542.2,404.1z"/>
				<path class="st1" d="M542.2,489.5v-85.4c-89.6-71-213.4-114.9-350-114.9c-31.6,0-63.1,2.4-94.3,7.1v193.2H542.2z"/>
				<path class="st4" d="M184.9,604.8h300.6c1-10.2,0.5-20.5-1.4-30.6l0,0c-5.1-26.8-20.9-50.3-43.7-65.2h-248
					C180.5,550.8,172.1,570.5,184.9,604.8z"/>
				<path class="st5" d="M192.4,509h-27.7c-22.8,14.9-38.6,38.4-43.7,65.2l0,0c-1.9,10.1-2.3,20.4-1.4,30.6h65.1
					C172.1,570.5,180.5,550.8,192.4,509z"/>
				<path class="st5" d="M174.8,333.4l-16-19.4c-7.1-8.6-5.8-21.3,2.8-28.3c1.2-1,2.6-1.9,4-2.6l5.3-2.6c7.8-3.9,16.9-3.9,24.7,0
					l29.6,15L174.8,333.4z"/>
				<path class="st6" d="M195.6,280.5c-7.8-3.9-16.9-3.9-24.7,0l-17.5,8.7c-6.7,3.3-11.7,9.4-13.6,16.6l-7.2,27.7l44.2-26.9
					c7-4.2,12.4-10.6,15.5-18.1L195.6,280.5z"/>
				<path class="st5" d="M429.1,333.4l16-19.5c7.1-8.6,5.8-21.3-2.8-28.4c-1.2-1-2.6-1.9-4-2.6l-5.3-2.6c-7.8-3.9-16.9-3.9-24.7,0
					l-29.6,15L429.1,333.4z"/>
				<path class="st6" d="M408.3,280.5c7.8-3.9,16.9-3.9,24.7-0.1l17.5,8.7c6.7,3.3,11.6,9.4,13.5,16.6l7.2,27.7L427,306.5
					c-7-4.2-12.4-10.6-15.5-18.1L408.3,280.5z"/>
				<path class="st5" d="M216.4,501.1c-58.5-37.8-45.6-128-23.6-199.9c-9.6,9-16,21-18.2,34l-9.8,59.7l-3.3,12.3
					c-6,22.3-7,45.6-2.8,68.2l6.1,33.6l42.8,11.8c62.2,17.2,127.8,17.2,190,0l4.3-1.2C353.9,529.1,272.5,537.3,216.4,501.1z"/>
				<path class="st4" d="M446.5,475.4c4.1-22.7,3.2-46-2.8-68.2l-3.3-12.3l-9.8-59.6c-3.7-21.8-19-39.9-39.8-47.2l-18.4-6.6
					c-45.2-16.2-94.6-16.2-139.8,0l-18.2,6.6c-8,2.9-15.4,7.4-21.6,13.2c-22,71.9-34.9,162.1,23.6,199.9
					c56.1,36.2,137.5,28.1,185.6,18.6l38.5-10.7L446.5,475.4z"/>
				<path class="st7" d="M285.6,589.9c-19.2-15.9-41.2-36.7-51.6-62.8c-8.9-1.7-17.7-3.8-26.5-6.2L164.8,509l-1.8,1.2l17.3,22.8
					c22.2,29.2,50.7,53.1,83.2,70.1l3.3,1.8h35.8C296.9,599.6,291.1,594.4,285.6,589.9z"/>
				<path class="st8" d="M285.6,589.9c5.5,4.5,11.3,9.7,17,14.9h85.3c20.2-22.4,36.1-48.4,46.8-76.6l7-18.4l-1.3-0.8l-42.8,11.8
					c-53.3,14.7-109.3,16.8-163.6,6.2C244.4,553.2,266.4,574,285.6,589.9z"/>
				<path class="st6" d="M391,411c-5.1-2.6-10-5.5-14.6-8.7c-7.6-5.3-35.2-31.3-37-33.9c-1.4-2.1,24.4,19.2,42.8,31.3
					c4,2.6,9.3,1.8,12.4-1.8c8.7-10.5,24.9-32.5,24.9-52.5c0,0-17-24-32.8-30.7s-53.6,3.1-50.7,21.3c0.2,0.5-54.8,0.5-54.6,0
					c2.9-18.2-34.9-28-50.7-21.3S198,345.2,198,345.2c0,20,16.2,42.1,24.9,52.5c3.1,3.7,8.4,4.4,12.4,1.8
					c18.4-12.1,44.2-33.3,42.8-31.3c-1.8,2.7-29.4,28.6-37,33.9c-4.7,3.2-9.5,6.2-14.6,8.7l0,0c-6.9,4.1-25,4.4-25,30.2
					c0,35.3,43.1,41.8,58.9,41.1s36.2-14.9,48.3-15.3c12,0.5,32.4,14.7,48.3,15.3s59-5.8,59-41.1C416,415.4,397.9,415.1,391,411z"/>
				<path class="st8" d="M264.4,335.7l-35.6,4c-2.9,3.5-4.3,7.6-3.5,11.6c1.7,8.5,12.7,13,24.6,10.1c3.2-0.8,6.2-2,9-3.8
					c4.9-3.2,7.6-8.8,7.2-14.6C266,340.6,265.4,338.1,264.4,335.7z"/>
				<path class="st3" d="M236.1,343.8c0.1,0.1,0.1,0.2,0.2,0.3c0.6,1.4-0.1,3.1-1.5,3.7c-1.1,0.5-2.4,0.1-3.2-0.8
					c-0.1,0.3-0.1,0.7-0.1,1c0,2.3,1.9,4.2,4.2,4.2c2.3,0,4.2-1.9,4.2-4.2C239.9,345.9,238.2,344.1,236.1,343.8L236.1,343.8z"/>
				<path class="st8" d="M234.8,347.7c1.4-0.6,2.1-2.2,1.5-3.6c-0.1-0.1-0.1-0.2-0.2-0.3c-0.2,0-0.3,0-0.5,0c-2,0-3.6,1.4-4.1,3.3
					C232.4,347.9,233.7,348.2,234.8,347.7z"/>
				<path class="st9" d="M393.3,453.1c-7.6,0.7-14.3-5.8-29.1-11.1c-35.8-13-75-13-110.8,0c-14.8,5.3-21.5,11.8-29.1,11.1"/>
				<path class="st10" d="M354.4,333.4l35.6,4.4c2.9,3.9,4.3,8.3,3.5,12.6c-1.7,9.3-12.7,14.2-24.6,11c-3.2-0.8-6.3-2.2-9-4.1
					c-4.7-3.2-7.6-9.3-7.2-15.8C352.8,338.7,353.4,336,354.4,333.4z"/>
				<path class="st3" d="M382.6,343.8c-0.1,0.1-0.1,0.2-0.2,0.3c-0.6,1.4,0.2,3.1,1.6,3.6c1.1,0.4,2.3,0.1,3.1-0.8
					c0.1,0.3,0.1,0.7,0.1,1c0,2.3-1.9,4.2-4.2,4.2c-2.3,0-4.2-1.9-4.2-4.2C378.9,345.9,380.5,344.1,382.6,343.8L382.6,343.8z"/>
				<path class="st10" d="M383.9,347.7c-1.4-0.6-2.1-2.2-1.5-3.6c0.1-0.1,0.1-0.2,0.2-0.3c0.2,0,0.3,0,0.5,0c1.9,0,3.6,1.4,4.1,3.3
					C386.4,347.9,385.1,348.2,383.9,347.7z"/>
				<path class="st3" d="M341.8,376.1c0-11.6-19.8-17.9-33-17.9s-33,6.3-33,17.9c0,5,3.4,8.4,8.5,10.6c0.2-0.8,0.7-1.4,1.3-1.8
					c1.5-1,2.5-2.8,2.5-4.6c0-1.8-0.9-3.5-2.4-4.6c-1.4-1-1.8-2.9-1-4.4c0.5-1.3,2.1-2,3.4-1.4c0.1,0.1,0.3,0.1,0.4,0.2
					c3.3,2.3,5.3,6.1,5.2,10.2c0,3.1-1.1,6.1-3.2,8.5c12.1,2.5,24.6,2.5,36.8,0c-2.1-2.3-3.3-5.3-3.3-8.5c-0.1-4,1.9-7.9,5.2-10.2
					c1.2-0.8,2.8-0.4,3.6,0.8c0.1,0.1,0.2,0.3,0.2,0.4c0.8,1.5,0.3,3.4-1.1,4.4c-1.5,1-2.4,2.7-2.4,4.6c0,1.8,0.9,3.6,2.5,4.6
					c0.7,0.4,1.1,1.1,1.3,1.8C338.4,384.5,341.8,381.1,341.8,376.1z"/>
				<path class="st6" d="M293.6,380.3c0.1-4-1.9-7.9-5.2-10.2c-1.2-0.8-2.8-0.4-3.6,0.8c-0.1,0.1-0.2,0.3-0.2,0.4
					c-0.8,1.5-0.4,3.4,1,4.4c1.5,1,2.4,2.7,2.4,4.6c0,1.8-0.9,3.6-2.5,4.6c-0.7,0.4-1.1,1.1-1.3,1.8c2,0.8,4,1.5,6.1,2
					C292.5,386.4,293.7,383.4,293.6,380.3z"/>
				<path class="st6" d="M332,384.9c-1.5-1-2.5-2.8-2.5-4.6c0-1.8,0.9-3.5,2.4-4.6c1.4-1,1.8-2.9,1.1-4.4c-0.5-1.3-2.1-2-3.4-1.4
					c-0.1,0.1-0.3,0.1-0.4,0.2c-3.3,2.3-5.3,6.1-5.2,10.2c0,3.1,1.1,6.1,3.2,8.5c2.1-0.5,4.2-1.2,6.1-2
					C333.2,386,332.7,385.3,332,384.9z"/>
				<path class="st11" d="M337.8,502.9c-0.5-0.5-0.8-1.2-0.8-1.9c-0.1-0.7,0.2-1.4,0.7-1.9c1-1,2.7-1.1,3.7-0.1
					c0.5,0.5,0.8,1.2,0.8,1.9c0,0.7-0.2,1.4-0.7,2C340.5,503.9,338.9,503.9,337.8,502.9C337.8,502.9,337.8,502.9,337.8,502.9
					L337.8,502.9z"/>
				<path class="st11" d="M348.1,502.4c-1.2-0.6-2.3-1.5-3-2.6c-1.5-2.4-1.5-5.4-0.2-7.9c0.7-1.2,1.6-2.1,2.8-2.8
					c1.3-0.7,2.7-1.1,4.1-1.1c1.4-0.1,2.8,0.2,4,0.9c1.1,0.6,2,1.6,2.6,2.7l-3.2,1.9c-0.6-1.2-1.9-2-3.3-1.9c-1,0-2,0.4-2.7,1.2
					c-1.4,1.8-1.3,4.3,0.2,6c0.7,0.7,1.7,1.1,2.8,1c1.4,0,2.7-0.9,3.2-2.1l3.3,1.7c-0.5,1.2-1.3,2.2-2.4,2.8c-1.2,0.7-2.6,1.1-4,1.1
					C350.8,503.3,349.4,503,348.1,502.4z"/>
				<path class="st11" d="M375.5,481.9l0.6,20.4l-4,0.1l0-1.7c-1.1,1.4-2.8,2.1-4.5,2.1c-1.3,0.1-2.6-0.2-3.7-0.8
					c-1.1-0.6-2.1-1.5-2.7-2.6c-1.3-2.5-1.4-5.4-0.2-8c0.6-1.1,1.4-2.1,2.5-2.8c1.1-0.7,2.4-1,3.7-1c1.6-0.1,3.3,0.5,4.4,1.6
					l-0.2-7.2L375.5,481.9z M370.8,498c0.7-0.8,1.1-1.9,1-3c0-1.1-0.4-2.2-1.1-3c-1.5-1.4-3.9-1.4-5.3,0.1c0,0,0,0,0,0
					c-1.4,1.8-1.3,4.3,0.2,6C367,499.6,369.4,499.5,370.8,498C370.9,498,370.9,498,370.8,498L370.8,498z"/>
			</g>
		</g>
	</g>
</g>
</svg>
